<?xml version="1.0" encoding="utf-8"?>
<!-- Generator: Adobe Illustrator 16.0.0, SVG Export Plug-In . SVG Version: 6.00 Build 0)  -->
<!DOCTYPE svg PUBLIC "-//W3C//DTD SVG 1.1//EN" "http://www.w3.org/Graphics/SVG/1.1/DTD/svg11.dtd">
<svg version="1.1" id="Layer_1" xmlns="http://www.w3.org/2000/svg" xmlns:xlink="http://www.w3.org/1999/xlink" x="0px" y="0px"
	 width="1200px" height="871px" viewBox="0 0 1200 871" enable-background="new 0 0 1200 871" xml:space="preserve">
<path fill="#FFFFFF" d="M724.663,25.818c-49.392,11.284-92.288,46.758-107.734,92.46c-18.947-56.777-79.153-97.772-141.442-98.042
	c-74.796-0.325-135.73,60.63-135.835,135.886c-0.104,74.485,60.208,135.083,134.84,135.476
	c64.37,0.339,127.212-44.221,144.124-104.144c2.679,2.85,5.04,6.177,6.339,10.497c19.56,65.051,83.324,104.409,151.414,94.111
	c64.601-9.768,113.809-67.491,113.983-133.704C890.579,71.74,809.068,6.535,724.663,25.818z"/>
<g>
	<path d="M152.574,433.202c-6.268,6.702-11.012,11.773-16.071,17.183c-5.853-12.932,2.146-36.628,13.232-41.824
		c9.046-4.24,12.336-0.622,13.916,8.683c1.634,9.624,4.948,20.791,11.45,27.454c32.91,33.728,73.719,38.921,116.533,25.124
		c20.938-6.748,39.927-19.535,61.101-30.248c-5.769,12.531-11.619,25.244-17.504,38.028c19.806,6.73,52.477-5.428,94.871-35.682
		c-0.99,13.131-1.774,23.509-2.553,33.812c26.855,10.812,67.455-5.229,136.749-51.045c-3.412,5.57-6.467,11.405-10.331,16.646
		c-4.343,5.891-9.416,11.245-14.744,17.51c11.604,7.28,22.875,6.421,32.19,1.502c18.999-10.037,37-21.981,55.261-33.384
		c3.821-2.388,6.987-5.818,9.4-7.871c6.279,5.305,12.207,10.332,18.158,15.328c20.991,17.624,45.566,25.173,72.604,26.191
		c9.93,0.375,12.147-4.184,8.341-12.242c-3.47-7.346-7.927-14.229-10.459-22.854c3.435,2.537,6.937,4.982,10.286,7.619
		c27.034,21.277,56.188,38.777,88.969,49.724c6.695,2.235,13.552,4.721,20.484,5.31c7.012,0.596,14.213-1.021,21.331-1.667
		c-2.129-6.348-3.925-12.835-6.5-18.994c-1.838-4.402-4.723-8.365-6.182-13.605c19.678,14.188,40.861,23.778,64.51,27.129
		c42.418,6.006,82.188-1.377,118.146-25.278c9.521-6.33,19.818-13.215,13.256-28.091c-1.012-2.292,1.359-8.213,3.63-9.25
		c2.566-1.172,7.312,0.447,10.193,2.288c11.173,7.131,14.278,28.008,6.362,46.032c-10.891-13.265-19.086-3.013-28.862,2.206
		c-19.009,10.146-38.802,18.812-57.999,28.626c-3.965,2.026-8.19,5.791-9.826,9.77c-12.651,30.764-24.119,62.019-37.069,92.648
		c-16.504,39.032-31.882,78.768-51.603,116.163c-42.604,80.798-113.377,123.808-201.132,140.812
		c-83.759,16.229-164.024,3.602-241.088-32.006c-51.948-24.007-90.714-62.431-116.056-112.861
		c-18.806-37.422-34.923-76.502-48.617-116.097c-12.837-37.114-32.864-69.958-52.18-103.442c-1.668-2.891-5.33-5.223-8.582-6.514
		C189.682,475.51,165.871,461.757,152.574,433.202z"/>
	<path d="M613.933,208.549c-17.349,41.101-45.94,70.371-87.449,85.935c-31.485,11.804-63.557,12.153-95.631,2.312
		c-63.512-19.482-105.479-79.688-103.05-147.476c2.354-65.623,50.202-122.463,114.833-137.305
		c56.588-12.996,135.33,7.222,172.783,94.062c17.189-39.08,43.437-67.932,82.068-83.958C735.93,6.173,774.662,6.4,812.896,22.636
		c57.327,24.341,94.316,84.836,89.146,144.668c-5.786,66.943-50.541,120.039-113.495,134.648
		C717.289,318.488,662.289,289.269,613.933,208.549z M339.651,156.122c-0.104,74.485,60.208,135.083,134.84,135.476
		c75.243,0.396,136.179-60.015,136.323-135.144c0.145-75.398-59.953-135.891-135.328-136.218
		C400.69,19.911,339.757,80.866,339.651,156.122z M890.352,158.358C890.579,71.74,809.068,6.535,724.662,25.817
		c-62.464,14.27-102.297,64.451-101.595,127.861c0.063,5.815-0.856,11.655-0.589,17.451c0.413,8.979-0.062,18.389,2.475,26.821
		c19.56,65.051,83.324,104.409,151.414,94.111C840.969,282.294,890.177,224.572,890.352,158.358z"/>
	<path d="M563.016,188.529c0.143,30.239-23.631,54.102-53.751,53.955c-29.469-0.144-53.384-23.901-53.544-53.186
		c-0.162-29.795,24.295-54.263,54.018-54.038C539.334,135.48,562.877,159.02,563.016,188.529z"/>
	<path d="M711.979,84.428c30.079-0.085,53.94,23.895,53.752,54.02c-0.185,29.446-23.947,53.115-53.396,53.188
		c-29.371,0.071-53.523-23.586-53.938-52.832C657.972,108.952,682.057,84.511,711.979,84.428z"/>
</g>
</svg>
